<?xml version="1.0" encoding="UTF-8" standalone="no"?>
<!-- Created with Inkscape (http://www.inkscape.org/) -->

<svg
   width="141.65695mm"
   height="19.043415mm"
   viewBox="0 0 141.65695 19.043416"
   version="1.1"
   id="svg1"
   inkscape:version="1.4.2 (ebf0e940d0, 2025-05-08)"
   sodipodi:docname="impositionfix_mono_small.svg"
   xmlns:inkscape="http://www.inkscape.org/namespaces/inkscape"
   xmlns:sodipodi="http://sodipodi.sourceforge.net/DTD/sodipodi-0.dtd"
   xmlns="http://www.w3.org/2000/svg"
   xmlns:svg="http://www.w3.org/2000/svg">
  <sodipodi:namedview
     id="namedview1"
     pagecolor="#ffffff"
     bordercolor="#000000"
     borderopacity="0.25"
     inkscape:showpageshadow="2"
     inkscape:pageopacity="0.0"
     inkscape:pagecheckerboard="0"
     inkscape:deskcolor="#d1d1d1"
     inkscape:document-units="mm"
     inkscape:zoom="1.8641482"
     inkscape:cx="326.95898"
     inkscape:cy="76.1742"
     inkscape:window-width="2160"
     inkscape:window-height="1389"
     inkscape:window-x="0"
     inkscape:window-y="0"
     inkscape:window-maximized="0"
     inkscape:current-layer="layer1"
     showguides="true">
    <inkscape:page
       x="0"
       y="0"
       width="141.65695"
       height="19.043415"
       id="page1"
       margin="0"
       bleed="0"
       inkscape:export-filename="Page 1.svg"
       inkscape:export-xdpi="96"
       inkscape:export-ydpi="96" />
    <inkscape:page
       x="-5.6797009"
       y="43.270725"
       width="128.89963"
       height="19.04812"
       id="page19"
       margin="0"
       bleed="0" />
  </sodipodi:namedview>
  <defs
     id="defs1" />
  <g
     inkscape:label="Layer 1"
     inkscape:groupmode="layer"
     id="layer1"
     transform="translate(-3.1978204,1.2950153)">
    <path
       id="path19"
       style="font-weight:900;font-size:22.5778px;font-family:Roboto;-inkscape-font-specification:'Roboto Heavy';fill:#aa0000;stroke:none;stroke-width:0.788607"
       d="m 121.22138,47.765423 -1.26454,2.403813 2.66861,4.336462 3.62741,-6.740275 z m -4.28151,5.84712 -3.70775,7.055021 h 5.06485 l 1.39495,-2.656926 z"
       sodipodi:nodetypes="cccccccccc" />
    <path
       id="path18"
       style="font-weight:900;font-size:22.5778px;font-family:Roboto;-inkscape-font-specification:'Roboto Heavy';fill:#aa0000;stroke:none;stroke-width:0.788607"
       d="m 108.52663,48.291428 c 0,4.125439 0,8.250878 0,12.376316 1.58471,0 3.16943,0 4.75415,0 0,-4.300727 0,-8.601455 0,-12.902183 -1.58472,1e-6 -3.16944,0 -4.75415,0 0,0.17529 0,0.350579 0,0.525867 z" />
    <path
       id="path17"
       style="font-weight:900;font-size:22.5778px;font-family:Roboto;-inkscape-font-specification:'Roboto Heavy';fill:#aa0000;stroke:none;stroke-width:0.838842"
       d="m 110.61263,41.985359 c -1.50596,0.03848 -2.60337,1.602354 -2.28781,3.040715 0.1903,1.533409 1.92358,2.421757 3.33372,1.963756 1.86886,-0.458483 2.37899,-3.16416 0.95442,-4.37603 -0.53156,-0.498898 -1.28689,-0.684526 -2.00033,-0.628441 z" />
    <path
       id="path16"
       style="font-weight:900;font-size:22.5778px;font-family:Roboto;-inkscape-font-specification:'Roboto Heavy';fill:#aa0000;stroke:none;stroke-width:0.788607"
       d="m 96.237629,44.195097 c 0,5.490882 0,10.981765 0,16.472647 1.63194,0 3.26388,0 4.895811,0 0,-2.117699 0,-4.235398 0,-6.353097 2.0666,0 4.1332,0 6.1998,0 0,-1.336338 0,-2.672675 0,-4.009011 -2.0666,0 -4.1332,0 -6.1998,0 0,-0.871918 0,-1.743835 0,-2.615752 2.27488,0 4.54975,0 6.82463,0 10e-6,-1.340219 0,-2.680436 0,-4.020653 -3.90681,0 -7.81362,0 -11.720441,0 0,0.175289 0,0.350578 0,0.525866 z" />
    <path
       id="path15"
       style="font-weight:900;font-size:22.5778px;font-family:Roboto;-inkscape-font-specification:'Roboto Heavy';fill:#aa0000;stroke:none;stroke-width:0.788607"
       d="m 90.270676,47.571515 c -0.86475,0.08567 -1.71985,0.383345 -2.400354,0.933365 -0.280669,-0.592833 -0.590285,-0.739319 -1.143333,-0.739319 -1.130517,1e-6 -2.261034,0 -3.39155,0 v 12.902183 h 4.742509 c 0.01808,-2.92338 -0.03626,-5.869591 0.02712,-8.778685 0.478988,-0.568206 1.589428,-0.629671 2.068538,-0.06016 0.28129,1.216671 0.0554,2.498935 0.12808,3.740839 v 5.098001 h 4.763853 c -0.0393,-3.047114 0.0792,-6.100075 -0.0595,-9.143648 -0.0909,-1.536233 -0.914333,-3.111754 -2.427293,-3.655528 -0.72773,-0.297694 -1.52993,-0.362741 -2.30806,-0.297054 z"
       sodipodi:nodetypes="sccccccccccccss" />
    <path
       id="rect19"
       style="fill:#f9f9f9;stroke:none;stroke-width:0.788855;stroke-dasharray:none"
       d="m 113.28078,47.765561 h 5.19658 l 7.94039,12.902183 h -5.06268 z"
       sodipodi:nodetypes="ccccc" />
    <path
       style="baseline-shift:baseline;display:inline;overflow:visible;opacity:1;vector-effect:none;fill:#aa0000;enable-background:accumulate;stop-color:#000000;stop-opacity:1"
       d="m 76.947839,47.619097 c -2.063654,0.04051 -4.069385,1.030088 -5.289063,2.744141 -1.30056,1.763803 -1.62804,4.122141 -0.851562,6.175782 0.743781,2.062644 2.524809,3.644331 4.662109,4.140625 2.168986,0.540643 4.507667,-0.102803 6.113281,-1.642578 1.590083,-1.509781 2.335459,-3.765874 1.953125,-5.927735 -0.370627,-2.117311 -1.781138,-3.973652 -3.755859,-4.867188 -0.907038,-0.431533 -1.867695,-0.592066 -2.779297,-0.623047 h -0.02734 z m 0.01953,1.980469 c 0.719061,0.02788 1.398876,0.150957 1.972657,0.425781 l 0.0098,0.0059 0.01172,0.0039 c 1.347399,0.606795 2.373001,1.954091 2.628906,3.416016 l 0.002,0.002 c 0.262818,1.483389 -0.280414,3.121125 -1.373047,4.15625 l -0.002,0.002 -0.002,0.002 c -1.102269,1.057069 -2.803171,1.519847 -4.275391,1.15039 l -0.0098,-0.002 -0.0078,-0.002 c -1.45877,-0.336569 -2.756866,-1.48832 -3.261719,-2.894531 l -0.002,-0.0098 -0.0039,-0.0078 c -0.531696,-1.39945 -0.293244,-3.116322 0.595703,-4.31836 l 0.0059,-0.0078 0.0059,-0.0098 c 0.822019,-1.159632 2.261291,-1.877218 3.705078,-1.91209 z"
       id="path1-2-4-2" />
    <path
       style="baseline-shift:baseline;display:inline;overflow:visible;opacity:1;vector-effect:none;fill:#aa0000;enable-background:accumulate;stop-color:#000000;stop-opacity:1"
       d="m 36.576745,47.775347 c -0.441074,0.0087 -0.879937,0.06042 -1.308594,0.154297 l -0.890625,0.195312 0.123047,0.902344 c 0.166168,1.215998 -0.239434,2.471583 -1.046875,3.052735 -0.02703,0.01932 -0.05381,0.03993 -0.08008,0.06055 h -0.002 l -0.002,0.002 c -0.5858,0.464708 -1.39915,0.710755 -2.439357,0.816409 l -0.814454,0.08203 -0.06836,0.816407 c -0.07991,0.952136 0.04452,1.924749 0.388672,2.835938 0.742942,2.061995 2.522288,3.64307 4.658203,4.140625 2.169215,0.542166 4.506758,-0.09933 6.113281,-1.638672 1.592359,-1.509848 2.337648,-3.766496 1.955078,-5.929688 -0.370623,-2.11731 -1.781153,-3.973713 -3.755858,-4.86724 -0.906922,-0.431478 -1.865688,-0.592064 -2.777344,-0.623047 h -0.02734 z m 0.0039,1.976563 c 0.724649,0.02665 1.410348,0.152875 1.988281,0.429687 l 0.0098,0.0039 0.0098,0.0059 c 1.347417,0.606803 2.374941,1.952083 2.630859,3.414063 v 0.002 c 0.262842,1.483519 -0.27852,3.123134 -1.371094,4.158203 l -0.002,0.002 -0.002,0.002 c -1.102262,1.057058 -2.80319,1.519842 -4.275391,1.15039 l -0.0098,-0.002 -0.0098,-0.002 C 34.090541,58.579456 32.79439,57.42771 32.289535,56.021492 l -0.0039,-0.0098 -0.002,-0.0078 c -0.152392,-0.401101 -0.143478,-0.843706 -0.173828,-1.277344 0.887456,-0.180102 1.750611,-0.453573 2.486328,-1.037109 0.0018,-0.0014 0.004,-0.0026 0.0059,-0.0039 l 0.002,-0.002 0.002,-0.002 c 1.275246,-0.917853 1.716424,-2.413472 1.759765,-3.904297 0.07205,-0.0053 0.142698,-0.02346 0.214844,-0.02539 z"
       id="path1-2-4-2-3" />
    <path
       id="path12"
       style="font-weight:900;font-size:22.5778px;font-family:Roboto;-inkscape-font-specification:'Roboto Heavy';fill:#aa0000;stroke:none;stroke-width:0.788607"
       d="m 68.967306,48.291428 c 0,4.125439 0,8.250878 0,12.376316 1.584714,0 3.169429,0 4.754143,0 0,-4.300727 0,-8.601455 0,-12.902183 -1.584714,1e-6 -3.169429,0 -4.754143,0 0,0.17529 0,0.350579 0,0.525867 z" />
    <path
       id="path11"
       style="font-weight:900;font-size:22.5778px;font-family:Roboto;-inkscape-font-specification:'Roboto Heavy';fill:#aa0000;stroke:none;stroke-width:0.838842"
       d="m 71.09017,41.985359 c -1.517711,0.03749 -2.615392,1.622816 -2.283924,3.067882 0.208768,1.558953 2.010816,2.424248 3.423999,1.904882 1.901548,-0.544912 2.266856,-3.410359 0.666235,-4.500212 -0.510799,-0.388086 -1.175941,-0.51991 -1.80631,-0.472552 z" />
    <path
       id="path10"
       style="font-weight:900;font-size:22.5778px;font-family:Roboto;-inkscape-font-specification:'Roboto Heavy';fill:#aa0000;stroke:none;stroke-width:0.788607"
       d="m 61.661435,45.345797 v 2.419764 h -1.287112 v 3.416392 h 1.377468 c 0,0 0,4.394043 5e-6,6.647462 0,2.432464 2.389742,3.218438 4.867002,2.779831 0.70361,-1.218688 1.754824,-3.622696 1.754824,-3.622696 -0.76281,0.453399 -1.748537,0.441344 -1.87654,-0.151231 -0.09122,-0.429788 -0.09122,-4.050152 -0.09122,-4.050152 v -1.603214 l 1.948242,10e-7 v -3.416391 h -1.948229 v -2.945632 h -4.744446 v 0.525868 z"
       sodipodi:nodetypes="cccccccccccccccccc" />
    <path
       id="path9"
       style="font-weight:900;font-size:22.5778px;font-family:Roboto;-inkscape-font-specification:'Roboto Heavy';fill:#aa0000;stroke:none;stroke-width:0.788607"
       d="m 55.091005,48.291428 c 0,4.125439 0,8.250878 0,12.376316 1.584716,0 3.169434,0 4.754151,0 0,-4.300727 0,-8.601455 0,-12.902183 -1.584717,1e-6 -3.169435,0 -4.754151,0 0,0.17529 0,0.350579 0,0.525867 z" />
    <path
       id="path8"
       style="font-weight:900;font-size:22.5778px;font-family:Roboto;-inkscape-font-specification:'Roboto Heavy';fill:#aa0000;stroke:none;stroke-width:0.838842"
       d="m 57.223581,41.985359 c -1.517211,0.03833 -2.61556,1.622709 -2.283932,3.067882 0.209803,1.558575 2.010638,2.424189 3.424002,1.904882 1.901765,-0.543541 2.269251,-3.412168 0.665886,-4.501684 -0.511914,-0.385466 -1.175751,-0.518588 -1.805956,-0.47108 z" />
    <path
       id="path7"
       style="font-weight:900;font-size:22.5778px;font-family:Roboto;-inkscape-font-specification:'Roboto Heavy';fill:#aa0000;stroke:none;stroke-width:0.788607"
       d="m 47.936495,47.563753 c -2.072962,0.04101 -4.266669,1.314922 -4.740567,3.440452 -0.390566,1.571468 0.500184,3.307026 1.87112,3.997211 0.805731,0.402396 1.2617,0.621859 1.93608,0.815154 h -4.284556 c -0.16701,2.366374 1.768851,4.507775 4.048478,4.896482 2.302142,0.427779 5.094004,0.155282 6.668188,-1.77846 1.379159,-1.658583 0.910667,-4.626788 -1.162261,-5.498632 -1.177997,-0.512739 -2.538347,-0.867941 -3.951092,-1.275355 -0.593461,-0.162918 -0.796891,-0.801794 -0.331057,-1.016686 0.573171,-0.284587 1.588792,-0.08339 1.488063,0.729946 -0.148662,0.554811 0.632848,0.57987 1.324841,0.57987 h 3.44899 C 54.342914,50.962684 53.730628,49.410533 52.431719,48.600087 51.1402,47.683398 49.47899,47.489181 47.936495,47.563753 Z m -0.70051,8.326342 c 0.786476,0.245108 2.35961,0.475718 2.35961,0.867603 0.02342,0.792299 -1.071232,0.667184 -1.600887,0.556915 -0.705764,-0.09717 -0.837241,-0.923595 -0.758723,-1.424518 z"
       sodipodi:nodetypes="ccccccccccccccccccc" />
    <path
       id="path2"
       style="font-weight:900;font-size:22.5778px;font-family:Roboto;-inkscape-font-specification:'Roboto Heavy';fill:#aa0000;stroke:none;stroke-width:0.788607"
       d="m 10.847013,47.571515 c -0.8691532,0.08365 -1.7237562,0.389614 -2.4081232,0.939186 -0.110054,-0.20022 -0.31425,-0.74514 -1.145265,-0.74514 -1.130518,0 -2.261036,1e-6 -3.3915548,0 v 12.902183 h 4.7444498 v -8.615685 c 0.323386,-0.657387 1.6136152,-0.916844 1.9113632,-0.143596 0.181889,2.05114 0.03313,4.126958 0.0815,6.18777 v 2.571511 h 4.742508 c -0.004,-2.876389 0.0079,-5.753038 -0.0059,-8.629268 0.33118,-0.654466 1.630658,-0.898182 1.923005,-0.12225 0.170841,2.040815 0.02935,4.104981 0.07568,6.154782 v 2.596736 h 4.75415 c -0.03536,-3.014218 0.07102,-6.033462 -0.05307,-9.044653 -0.06944,-1.567331 -0.885213,-3.200372 -2.435132,-3.753792 -1.72524,-0.692468 -3.893142,-0.26695 -5.15526,1.058603 -0.81696,-1.133634 -2.311457,-1.487926 -3.63838,-1.356387 z"
       sodipodi:nodetypes="cccccccccccccccccccc" />
    <path
       id="text1"
       style="font-weight:900;font-size:22.5778px;font-family:Roboto;-inkscape-font-specification:'Roboto Heavy';fill:#aa0000;stroke:none;stroke-width:0.788999"
       d="m -2.4818809,44.177207 c 0,5.49678 0,10.993561 0,16.490341 1.62792323,0 3.25584763,0 4.8837719,0 0,-5.672257 0,-11.344515 0,-17.016772 -1.62792427,0 -3.25584867,0 -4.8837719,0 0,0.175477 0,0.350954 0,0.526431 z" />
    <path
       id="text19"
       style="font-weight:900;font-size:22.5778px;font-family:Roboto;-inkscape-font-specification:'Roboto Heavy';fill:#aa0000;stroke:none;stroke-width:0.788855"
       d="m 23.223327,44.195098 c 0,5.490882 0,10.981763 0,16.472645 1.631934,0 3.263869,0 4.895803,0 0,-1.803343 0,-3.606685 0,-5.410029 2.25853,0.03251 4.767221,0.124502 6.641097,-1.36177 2.749073,-1.978634 2.689108,-6.501888 0.149726,-8.627456 -1.658271,-1.533361 -4.043737,-1.682021 -6.186949,-1.599257 -1.833226,0 -3.666452,0 -5.499677,0 0,0.175289 0,0.350578 0,0.525867 z m 6.869261,3.492845 c 1.09162,-0.140451 1.847968,0.935245 1.783291,1.938529 0.0872,0.915967 -0.710789,1.699425 -1.624508,1.606083 -0.71059,0.01102 -1.421524,0.0011 -2.132241,0.0045 0,-1.183039 0,-2.366079 0,-3.549118 0.657819,0 1.315639,0 1.973458,0 z" />
    <path
       id="path19-3-9"
       style="font-weight:900;font-size:22.5778px;font-family:Roboto;-inkscape-font-specification:'Roboto Heavy';fill:#aa0000;stroke:none;stroke-width:0.788607"
       d="m 129.31866,-1.294931 c -0.09,-6.83e-4 -0.18007,0.0028 -0.26925,0.0098 -1.50596,0.03848 -2.60327,1.60228 -2.28771,3.040641 0.1903,1.533409 1.9235,2.421705 3.33364,1.963704 1.86886,-0.458482 2.37905,-3.16409 0.95447,-4.37596 -0.46512,-0.436536 -1.10137,-0.633425 -1.73115,-0.638204 z m -14.64407,1.693437 v 0.526066 16.47238 h 4.89582 v -6.353101 h 6.19962 V 7.034793 h -6.19962 V 4.419449 h 6.82491 c 0,-1.340218 0,-2.680726 0,-4.020943 z m 12.28916,4.09639 v 0.526067 12.375989 h 4.70514 0.0491 5.01624 l 1.39474,-2.657203 -2.75228,-4.397664 -3.6587,6.961337 V 4.494896 Z m 12.69484,0 -1.26453,2.403471 2.66857,4.336687 3.62718,-6.740158 z" />
    <path
       id="rect19-1-9"
       style="fill:#ffffff;stroke:none;stroke-width:0.788855;stroke-dasharray:none"
       d="m 131.71779,4.494887 h 5.19658 l 7.94039,12.902185 h -5.06268 z"
       sodipodi:nodetypes="ccccc" />
    <g
       id="g13"
       transform="matrix(3.6314353,0,0,3.6314353,-568.53706,-375.96673)"
       style="fill:#ffffff">
      <path
         id="path15-9-0"
         style="font-weight:900;font-size:22.5778px;font-family:Roboto;-inkscape-font-specification:'Roboto Heavy';fill:#ffffff;stroke:none;stroke-width:0.215319"
         d="m 186.30962,104.74603 c -0.23609,0.0234 -0.46959,0.10467 -0.65538,0.25485 -0.0766,-0.16187 -0.16117,-0.20187 -0.31216,-0.20187 -0.30868,0 -0.61736,0 -0.92604,0 v 3.52278 h 1.29489 c 0.006,-0.79819 -0.01,-1.60262 0.007,-2.39691 0.13079,-0.15514 0.43397,-0.17192 0.5648,-0.0164 0.0768,0.3322 0.0151,0.68231 0.0349,1.02139 v 1.39195 h 1.3007 c -0.0108,-0.83198 0.0216,-1.66555 -0.0162,-2.49656 -0.0248,-0.41945 -0.24966,-0.84962 -0.66274,-0.9981 -0.19869,-0.0813 -0.41774,-0.099 -0.6302,-0.0811 z"
         sodipodi:nodetypes="sccccccccccccss" />
      <path
         style="baseline-shift:baseline;display:inline;overflow:visible;vector-effect:none;fill:#ffffff;stroke-width:0.273037;enable-background:accumulate;stop-color:#000000"
         d="m 182.19044,104.75902 c -0.56344,0.011 -1.11108,0.28126 -1.44409,0.74926 -0.3551,0.48158 -0.44452,1.1255 -0.23251,1.68622 0.20307,0.56317 0.68937,0.99504 1.27293,1.13054 0.59222,0.14762 1.23075,-0.0281 1.66915,-0.44848 0.43415,-0.41223 0.63768,-1.02823 0.53328,-1.6185 -0.1012,-0.5781 -0.48632,-1.08495 -1.0255,-1.32892 -0.24765,-0.11783 -0.50995,-0.16166 -0.75885,-0.17012 h -0.007 z"
         id="path1-2-4-2-2-8" />
      <path
         id="path1-2-4-2-3-1"
         style="baseline-shift:baseline;display:inline;overflow:visible;vector-effect:none;fill:#ffffff;stroke-width:0.273037;enable-background:accumulate;stop-color:#000000"
         d="m 169.43827,104.80167 c -0.12043,0.002 -0.23995,0.0164 -0.35699,0.042 l -0.0435,0.009 c 0.0358,0.53049 -0.16831,1.06191 -0.55695,1.43042 -0.23215,0.22242 -0.52004,0.37627 -0.82756,0.44982 0.0112,0.17087 0.0468,0.34037 0.10813,0.50314 0.20284,0.563 0.68876,0.99486 1.27193,1.13071 0.59229,0.14804 1.23077,-0.0271 1.66942,-0.44734 0.43476,-0.41225 0.6382,-1.02841 0.53375,-1.61905 -0.1012,-0.5781 -0.48638,-1.08474 -1.02555,-1.32871 -0.24763,-0.11781 -0.5095,-0.16189 -0.75842,-0.17035 h -0.007 z" />
      <path
         id="path12-7-3"
         style="font-weight:900;font-size:22.5778px;font-family:Roboto;-inkscape-font-specification:'Roboto Heavy';fill:#ffffff;stroke:none;stroke-width:0.215319"
         d="m 178.70243,104.9426 c 0,1.1264 0,2.25279 0,3.37919 0.43269,0 0.86536,0 1.29806,0 0,-1.17426 0,-2.34852 0,-3.52278 -0.4327,0 -0.86537,0 -1.29806,0 0,0.0479 0,0.0957 0,0.14359 z" />
      <path
         id="path11-0-1"
         style="font-weight:900;font-size:22.5778px;font-family:Roboto;-inkscape-font-specification:'Roboto Heavy';fill:#ffffff;stroke:none;stroke-width:0.229035"
         d="m 179.28204,103.2208 c -0.4144,0.0102 -0.7141,0.44309 -0.6236,0.83765 0.0571,0.42565 0.54903,0.66191 0.93488,0.5201 0.5192,-0.14878 0.61894,-0.93115 0.18191,-1.22872 -0.13947,-0.10596 -0.32107,-0.14196 -0.49319,-0.12903 z" />
      <path
         id="path10-9-1"
         style="font-weight:900;font-size:22.5778px;font-family:Roboto;-inkscape-font-specification:'Roboto Heavy';fill:#ffffff;stroke:none;stroke-width:0.215319"
         d="m 176.70763,104.13833 v 0.66068 h -0.35142 v 0.93281 h 0.37611 c 0,0 0,1.19974 0,1.815 0,0.66415 0.65247,0.87876 1.32887,0.759 0.19212,-0.33275 0.47914,-0.98913 0.47914,-0.98913 -0.20828,0.12379 -0.47743,0.1205 -0.51237,-0.0413 -0.0248,-0.11735 -0.0248,-1.10585 -0.0248,-1.10585 v -0.43773 h 0.53196 V 104.799 h -0.53195 v -0.80426 h -1.29541 v 0.14358 z"
         sodipodi:nodetypes="cccccccccccccccccc" />
      <path
         id="path9-3-0"
         style="font-weight:900;font-size:22.5778px;font-family:Roboto;-inkscape-font-specification:'Roboto Heavy';fill:#ffffff;stroke:none;stroke-width:0.215319"
         d="m 174.91367,104.9426 c 0,1.1264 0,2.25279 0,3.37919 0.43269,0 0.86537,0 1.29806,0 0,-1.17426 0,-2.34852 0,-3.52278 -0.43269,0 -0.86537,0 -1.29806,0 0,0.0479 0,0.0957 0,0.14359 z" />
      <path
         id="path8-6-3"
         style="font-weight:900;font-size:22.5778px;font-family:Roboto;-inkscape-font-specification:'Roboto Heavy';fill:#ffffff;stroke:none;stroke-width:0.229035"
         d="m 175.49594,103.2208 c -0.41426,0.0105 -0.71413,0.44306 -0.6236,0.83765 0.0573,0.42555 0.54899,0.66189 0.93489,0.5201 0.51925,-0.1484 0.61959,-0.93165 0.1818,-1.22913 -0.13977,-0.10524 -0.32101,-0.14159 -0.49309,-0.12862 z" />
      <path
         id="path7-0-4"
         style="font-weight:900;font-size:22.5778px;font-family:Roboto;-inkscape-font-specification:'Roboto Heavy';fill:#ffffff;stroke:none;stroke-width:0.215319"
         d="m 172.96021,104.74391 c -0.56598,0.0112 -1.16495,0.35903 -1.29434,0.93937 -0.10664,0.42907 0.13658,0.90295 0.51087,1.09139 0.22001,0.10987 0.34451,0.16979 0.52864,0.22257 h -1.16983 c -0.0456,0.64611 0.48295,1.23079 1.10536,1.33692 0.62857,0.1168 1.39085,0.0424 1.82068,-0.48558 0.37655,-0.45286 0.24864,-1.26329 -0.31735,-1.50134 -0.32164,-0.13999 -0.69306,-0.23698 -1.07879,-0.34822 -0.16204,-0.0445 -0.21758,-0.21892 -0.0904,-0.27759 0.1565,-0.0777 0.43381,-0.0228 0.4063,0.1993 -0.0406,0.15149 0.1728,0.15833 0.36173,0.15833 h 0.9417 c 0.0246,-0.40711 -0.14254,-0.83091 -0.49719,-1.05219 -0.35263,-0.25029 -0.80621,-0.30332 -1.22738,-0.28296 z m -0.19125,2.27341 c 0.21473,0.0669 0.64426,0.12988 0.64426,0.23688 0.006,0.21633 -0.29248,0.18217 -0.43709,0.15206 -0.1927,-0.0265 -0.22861,-0.25217 -0.20717,-0.38894 z"
         sodipodi:nodetypes="ccccccccccccccccccc" />
      <path
         id="path2-6-0"
         style="font-weight:900;font-size:22.5778px;font-family:Roboto;-inkscape-font-specification:'Roboto Heavy';fill:#ffffff;stroke:none;stroke-width:0.215319"
         d="m 161.07975,104.74603 c -0.23731,0.0228 -0.47065,0.10638 -0.6575,0.25644 -0.03,-0.0547 -0.0858,-0.20346 -0.3127,-0.20346 -0.30868,0 -0.61735,0 -0.92602,0 v 3.52278 h 1.29541 v -2.3524 c 0.0883,-0.17949 0.44057,-0.25034 0.52187,-0.0392 0.0497,0.56004 0.009,1.12681 0.0222,1.68949 v 0.70212 h 1.29488 c -0.001,-0.78536 0.002,-1.5708 -0.002,-2.35611 0.0904,-0.1787 0.44523,-0.24524 0.52506,-0.0334 0.0466,0.55722 0.008,1.12081 0.0207,1.68048 v 0.70901 h 1.29806 c -0.01,-0.823 0.0194,-1.64736 -0.0145,-2.46953 -0.019,-0.42794 -0.2417,-0.87382 -0.66488,-1.02492 -0.47106,-0.18907 -1.06298,-0.0729 -1.40758,0.28903 -0.22306,-0.30952 -0.63112,-0.40626 -0.99342,-0.37034 z"
         sodipodi:nodetypes="cccccccccccccccccccc" />
      <path
         id="text1-2-3"
         style="font-weight:900;font-size:22.5778px;font-family:Roboto;-inkscape-font-specification:'Roboto Heavy';fill:#ffffff;stroke:none;stroke-width:0.215427"
         d="m 157.44047,103.81926 c 0,1.50083 0,3.00165 0,4.50248 0.44448,0 0.88897,0 1.33345,0 0,-1.54874 0,-3.09748 0,-4.64622 -0.44448,0 -0.88897,0 -1.33345,0 0,0.0479 0,0.0958 0,0.14374 z" />
      <path
         id="text19-6-9"
         style="font-weight:900;font-size:22.5778px;font-family:Roboto;-inkscape-font-specification:'Roboto Heavy';fill:#ffffff;stroke:none;stroke-width:0.215387"
         d="m 164.45895,103.82414 c 0,1.49922 0,2.99844 0,4.49765 0.44558,0 0.89116,0 1.33673,0 0,-0.49238 0,-0.98476 0,-1.47714 0.61666,0.009 1.30165,0.034 1.81325,-0.37181 0.7506,-0.54024 0.73423,-1.77526 0.0409,-2.35562 -0.45275,-0.41866 -1.10408,-0.45926 -1.68925,-0.43666 -0.50053,0 -1.00107,0 -1.50161,0 0,0.0479 0,0.0957 0,0.14358 z m 1.87556,0.95368 c 0.29806,-0.0384 0.50457,0.25536 0.48691,0.52929 0.0238,0.2501 -0.19408,0.46401 -0.44356,0.43852 -0.19401,0.003 -0.38812,3e-4 -0.58218,10e-4 0,-0.32301 0,-0.64602 0,-0.96904 0.17961,0 0.35922,0 0.53883,0 z" />
    </g>
  </g>
</svg>
